<svg width="30" height="25" viewBox="0 0 30 25" fill="none" xmlns="http://www.w3.org/2000/svg">
<path d="M20.0001 15.5C18.5001 14 16.0001 10.5 14.5001 10.5C13.0001 10.5 11.1605 13.3396 9.50009 15C7.83971 16.6604 4.0002 19 4.50009 21C4.99998 23 11.5 23.5 14.5 23.5C17.5 23.5 24.0001 23.5 24.5001 21C25.0001 18.5 21.5001 17 20.0001 15.5Z" stroke="#1A1A1A" stroke-width="2"/>
<path d="M1.6663 13.1341C2.63864 14.1065 4.86801 14.735 5.66844 13.9345C6.46887 13.134 5.66851 9.93228 4.86801 9.13193C4.0675 8.33158 2.46659 7.53121 1.6663 8.3315C0.866005 9.1318 0.693952 12.1616 1.6663 13.1341Z" fill="#1A1A1A" stroke="#1A1A1A" stroke-width="2"/>
<path d="M7.95473 6.12445C8.63027 7.32226 10.609 8.52623 11.595 7.97006C12.581 7.4139 12.6697 4.11483 12.1135 3.12893C11.5572 2.14303 10.23 0.942203 9.24423 1.49823C8.25844 2.05426 7.2792 4.92664 7.95473 6.12445Z" fill="#1A1A1A" stroke="#1A1A1A" stroke-width="2"/>
<path d="M27.3909 12.3643C26.3668 13.282 24.1064 13.7874 23.351 12.9443C22.5956 12.1012 23.5701 8.94813 24.4132 8.19281C25.2563 7.4375 26.8987 6.72601 27.654 7.56893C28.4092 8.41185 28.4151 11.4466 27.3909 12.3643Z" fill="#1A1A1A" stroke="#1A1A1A" stroke-width="2"/>
<path d="M21.5226 6.1302C20.8375 7.32255 18.8491 8.51058 17.8677 7.94652C16.8862 7.38245 16.824 4.08277 17.3881 3.10137C17.9522 2.11997 19.2891 0.929845 20.2703 1.49378C21.2516 2.05771 22.2078 4.93786 21.5226 6.1302Z" fill="#1A1A1A" stroke="#1A1A1A" stroke-width="2"/>
</svg>
