<svg width="89" height="73" viewBox="0 0 89 73" fill="none" xmlns="http://www.w3.org/2000/svg">
<path d="M22.0377 63.8156V60.178C22.0589 59.8721 22.0147 59.5652 21.9079 59.2777C21.8012 58.9902 21.6344 58.7287 21.4187 58.5108C21.2031 58.2928 20.9434 58.1233 20.657 58.0135C20.3707 57.9037 20.0643 57.8562 19.7581 57.8742C19.3574 57.8479 18.957 57.9297 18.5987 58.111C18.2404 58.2923 17.9373 58.5665 17.7211 58.9049C17.524 58.5766 17.242 58.3076 16.9048 58.1262C16.5676 57.9448 16.1878 57.8578 15.8053 57.8742C15.4718 57.8574 15.1398 57.9279 14.842 58.0789C14.5443 58.2299 14.2911 58.4561 14.1077 58.7351V58.0197H12.8467V63.8156H14.1198V60.6267C14.0928 60.4285 14.1098 60.2267 14.1697 60.0359C14.2297 59.845 14.331 59.6698 14.4666 59.5227C14.6021 59.3755 14.7685 59.2602 14.9538 59.1848C15.1391 59.1095 15.3388 59.076 15.5385 59.0867C16.3752 59.0867 16.7995 59.6324 16.7995 60.6145V63.8399H18.0727V60.6267C18.0467 60.4287 18.0645 60.2274 18.1249 60.037C18.1852 59.8466 18.2867 59.6719 18.422 59.525C18.5573 59.3781 18.7232 59.2627 18.908 59.187C19.0927 59.1113 19.2919 59.0771 19.4914 59.0867C20.3523 59.0867 20.7645 59.6324 20.7645 60.6145V63.8399L22.0377 63.8156ZM40.8744 58.0197H38.801V56.2615H37.5278V58.0197H36.3759V59.1716H37.5521V61.8392C37.5521 63.1851 38.0734 63.9854 39.5649 63.9854C40.1221 63.9873 40.6685 63.8317 41.1412 63.5367L40.7774 62.4576C40.4392 62.6593 40.0554 62.7719 39.6619 62.785C39.0556 62.785 38.8252 62.397 38.8252 61.8149V59.1716H40.8865L40.8744 58.0197ZM51.6296 57.8742C51.3221 57.8652 51.0179 57.9392 50.749 58.0886C50.4801 58.238 50.2565 58.4572 50.1018 58.723V58.0197H48.8529V63.8156H50.1139V60.566C50.1139 59.6081 50.5262 59.0746 51.3264 59.0746C51.5962 59.0709 51.864 59.1204 52.1146 59.2201L52.5026 58.0076C52.2146 57.9046 51.9112 57.8513 51.6053 57.85L51.6296 57.8742ZM35.3695 58.4805C34.6557 58.0561 33.835 57.8456 33.0051 57.8742C31.5379 57.8742 30.58 58.5775 30.58 59.7294C30.58 60.6752 31.2833 61.2572 32.5807 61.4391L33.1869 61.5239C33.8781 61.6209 34.2055 61.8028 34.2055 62.1302C34.2055 62.5788 33.7447 62.8335 32.8838 62.8335C32.1913 62.8535 31.5122 62.64 30.9559 62.2272L30.3496 63.2094C31.0842 63.7223 31.964 63.9858 32.8596 63.9611C34.5329 63.9611 35.5029 63.173 35.5029 62.0696C35.5029 60.9662 34.739 60.5175 33.4779 60.3357L32.8717 60.2508C32.326 60.178 31.8895 60.0689 31.8895 59.6809C31.8895 59.2929 32.3018 59.0019 32.9929 59.0019C33.6317 59.0093 34.258 59.1805 34.8117 59.499L35.3695 58.4805ZM69.1446 57.8742C68.8372 57.8652 68.533 57.9392 68.2641 58.0886C67.9952 58.238 67.7716 58.4572 67.6168 58.723V58.0197H66.3679V63.8156H67.629V60.566C67.629 59.6081 68.0412 59.0746 68.8415 59.0746C69.1112 59.0709 69.379 59.1204 69.6296 59.2201L70.0177 58.0076C69.7297 57.9046 69.4262 57.8513 69.1204 57.85L69.1446 57.8742ZM52.8967 60.9055C52.8817 61.3128 52.9519 61.7188 53.1028 62.0974C53.2537 62.476 53.4819 62.819 53.773 63.1043C54.064 63.3896 54.4114 63.6111 54.7929 63.7544C55.1745 63.8978 55.5817 63.9599 55.9886 63.9369C56.7458 63.9754 57.4899 63.7288 58.0742 63.2457L57.4679 62.2272C57.032 62.5596 56.5004 62.7425 55.9523 62.7486C55.4861 62.7109 55.0513 62.4991 54.7342 62.1553C54.4172 61.8116 54.2411 61.3611 54.2411 60.8934C54.2411 60.4258 54.4172 59.9753 54.7342 59.6315C55.0513 59.2878 55.4861 59.076 55.9523 59.0382C56.5004 59.0443 57.032 59.2272 57.4679 59.5596L58.0742 58.5411C57.4899 58.058 56.7458 57.8114 55.9886 57.85C55.5817 57.8269 55.1745 57.889 54.7929 58.0324C54.4114 58.1758 54.064 58.3972 53.773 58.6825C53.4819 58.9679 53.2537 59.3108 53.1028 59.6894C52.9519 60.0681 52.8817 60.474 52.8967 60.8813V60.9055ZM64.7068 60.9055V58.0197H63.4457V58.723C63.2316 58.4474 62.955 58.2268 62.6387 58.0792C62.3225 57.9316 61.9757 57.8613 61.6269 57.8742C60.823 57.8742 60.0519 58.1936 59.4834 58.7621C58.915 59.3306 58.5956 60.1016 58.5956 60.9055C58.5956 61.7095 58.915 62.4805 59.4834 63.049C60.0519 63.6175 60.823 63.9369 61.6269 63.9369C61.9757 63.9497 62.3225 63.8795 62.6387 63.7319C62.955 63.5843 63.2316 63.3637 63.4457 63.0881V63.7914H64.7068V60.9055ZM60.0142 60.9055C60.0344 60.5644 60.1538 60.2365 60.3579 59.9624C60.5619 59.6883 60.8417 59.4798 61.1628 59.3627C61.4838 59.2455 61.8321 59.2248 62.1648 59.3031C62.4975 59.3815 62.8 59.5553 63.0351 59.8034C63.2701 60.0515 63.4276 60.3628 63.4879 60.6992C63.5483 61.0356 63.5089 61.3823 63.3747 61.6966C63.2405 62.0109 63.0173 62.2791 62.7326 62.4682C62.4479 62.6573 62.1142 62.7589 61.7724 62.7607C61.5324 62.7638 61.2943 62.7171 61.0732 62.6237C60.852 62.5302 60.6526 62.392 60.4875 62.2178C60.3223 62.0435 60.195 61.837 60.1136 61.6112C60.0322 61.3853 59.9983 61.1451 60.0142 60.9055ZM44.7969 57.8742C43.993 57.8855 43.2266 58.2157 42.6661 58.7922C42.1056 59.3686 41.7971 60.1441 41.8083 60.948C41.8196 61.7519 42.1497 62.5184 42.7261 63.0789C43.3025 63.6394 44.0779 63.9481 44.8818 63.9369C45.7541 63.9817 46.6119 63.7008 47.2887 63.1487L46.6824 62.2151C46.2037 62.599 45.6106 62.8124 44.997 62.8214C44.5802 62.8572 44.1658 62.729 43.842 62.4641C43.5182 62.1992 43.3105 61.8184 43.2631 61.4027H47.5676C47.5676 61.2451 47.5676 61.0874 47.5676 60.9177C47.5676 59.0989 46.4399 57.8863 44.8151 57.8863L44.7969 57.8742ZM44.7969 59.0019C44.9856 58.9978 45.1733 59.031 45.3492 59.0996C45.525 59.1681 45.6857 59.2706 45.8219 59.4012C45.9582 59.5318 46.0674 59.688 46.1432 59.8608C46.2191 60.0336 46.2602 60.2197 46.2641 60.4084H43.2328C43.2547 60.0192 43.4282 59.6541 43.716 59.3912C44.0038 59.1283 44.3831 58.9886 44.7727 59.0019H44.7969ZM76.3895 60.9177V55.6917H75.177V58.723C74.9628 58.4474 74.6862 58.2268 74.37 58.0792C74.0537 57.9316 73.7069 57.8613 73.3582 57.8742C72.5542 57.8742 71.7832 58.1936 71.2147 58.7621C70.6462 59.3306 70.3269 60.1016 70.3269 60.9055C70.3269 61.7095 70.6462 62.4805 71.2147 63.049C71.7832 63.6175 72.5542 63.9369 73.3582 63.9369C73.7069 63.9497 74.0537 63.8795 74.37 63.7319C74.6862 63.5843 74.9628 63.3637 75.177 63.0881V63.7914H76.3895V60.9177ZM78.4933 62.9729C78.5721 62.972 78.6503 62.9864 78.7236 63.0154C78.7933 63.0438 78.857 63.0849 78.9116 63.1366C78.9649 63.1889 79.008 63.2505 79.0389 63.3185C79.0696 63.3893 79.0855 63.4656 79.0855 63.5428C79.0855 63.62 79.0696 63.6963 79.0389 63.7671C79.008 63.8351 78.9649 63.8967 78.9116 63.949C78.857 64.0007 78.7933 64.0418 78.7236 64.0703C78.6511 64.1023 78.5726 64.1188 78.4933 64.1188C78.3783 64.1179 78.266 64.0844 78.1694 64.0221C78.0728 63.9599 77.9959 63.8714 77.9476 63.7671C77.9173 63.6962 77.9016 63.6199 77.9016 63.5428C77.9016 63.4657 77.9173 63.3894 77.9476 63.3185C77.9785 63.2505 78.0217 63.1889 78.0749 63.1366C78.1295 63.0849 78.1933 63.0438 78.2629 63.0154C78.3419 62.9839 78.4265 62.9695 78.5115 62.9729H78.4933ZM78.4933 63.9975C78.5538 63.9979 78.6137 63.9855 78.6691 63.9611C78.7212 63.9378 78.7686 63.9049 78.8085 63.8641C78.8844 63.7814 78.9264 63.6732 78.9264 63.561C78.9264 63.4488 78.8844 63.3406 78.8085 63.2579C78.7686 63.2169 78.7213 63.184 78.6691 63.1609C78.6136 63.1367 78.5538 63.1243 78.4933 63.1245C78.4328 63.1248 78.373 63.1372 78.3174 63.1609C78.263 63.1832 78.2135 63.2162 78.1719 63.2579C78.0961 63.3406 78.054 63.4488 78.054 63.561C78.054 63.6732 78.0961 63.7814 78.1719 63.8641C78.2136 63.9057 78.263 63.9387 78.3174 63.9611C78.3786 63.9875 78.4449 63.9999 78.5115 63.9975H78.4933ZM78.5296 63.2761C78.5862 63.2733 78.642 63.2905 78.6873 63.3246C78.7058 63.3399 78.7205 63.3595 78.7299 63.3816C78.7394 63.4038 78.7435 63.4278 78.7418 63.4519C78.7427 63.472 78.7394 63.4921 78.7321 63.5109C78.7248 63.5297 78.7136 63.5467 78.6994 63.561C78.6643 63.5929 78.6194 63.6121 78.5721 63.6156L78.7479 63.8156H78.6085L78.4448 63.6156H78.3902V63.8156H78.275V63.2821L78.5296 63.2761ZM78.3963 63.3791V63.5246H78.5296C78.5534 63.5317 78.5787 63.5317 78.6024 63.5246C78.6067 63.5162 78.6089 63.5068 78.6089 63.4973C78.6089 63.4879 78.6067 63.4785 78.6024 63.4701C78.6067 63.4616 78.6089 63.4522 78.6089 63.4428C78.6089 63.4333 78.6067 63.424 78.6024 63.4155C78.5787 63.4084 78.5534 63.4084 78.5296 63.4155L78.3963 63.3791ZM71.7273 60.9177C71.7474 60.5765 71.8669 60.2487 72.0709 59.9745C72.275 59.7004 72.5548 59.4919 72.8759 59.3748C73.1969 59.2576 73.5452 59.237 73.8779 59.3153C74.2105 59.3936 74.513 59.5675 74.7481 59.8155C74.9832 60.0636 75.1406 60.375 75.201 60.7114C75.2613 61.0477 75.222 61.3944 75.0878 61.7087C74.9536 62.0231 74.7304 62.2913 74.4457 62.4803C74.161 62.6694 73.8273 62.7711 73.4855 62.7728C73.2455 62.7759 73.0074 62.7292 72.7862 62.6358C72.5651 62.5423 72.3657 62.4041 72.2006 62.2299C72.0354 62.0556 71.9081 61.8491 71.8267 61.6233C71.7452 61.3975 71.7114 61.1572 71.7273 60.9177ZM29.1492 60.9177V58.0197H27.8882V58.723C27.674 58.4474 27.3974 58.2268 27.0812 58.0792C26.7649 57.9316 26.4181 57.8613 26.0694 57.8742C25.2654 57.8742 24.4944 58.1936 23.9259 58.7621C23.3574 59.3306 23.038 60.1016 23.038 60.9055C23.038 61.7095 23.3574 62.4805 23.9259 63.049C24.4944 63.6175 25.2654 63.9369 26.0694 63.9369C26.4181 63.9497 26.7649 63.8795 27.0812 63.7319C27.3974 63.5843 27.674 63.3637 27.8882 63.0881V63.7914H29.1492V60.9177ZM24.4567 60.9177C24.4768 60.5765 24.5962 60.2487 24.8003 59.9745C25.0044 59.7004 25.2842 59.4919 25.6052 59.3748C25.9263 59.2576 26.2746 59.237 26.6073 59.3153C26.9399 59.3936 27.2424 59.5675 27.4775 59.8155C27.7126 60.0636 27.87 60.375 27.9303 60.7114C27.9907 61.0477 27.9513 61.3944 27.8172 61.7087C27.683 62.0231 27.4598 62.2913 27.1751 62.4803C26.8904 62.6694 26.5566 62.7711 26.2149 62.7728C25.9738 62.7776 25.7344 62.7322 25.5118 62.6395C25.2892 62.5468 25.0884 62.4089 24.9219 62.2344C24.7554 62.06 24.6271 61.8529 24.5449 61.6262C24.4627 61.3995 24.4286 61.1582 24.4446 60.9177H24.4567Z" fill="#231F20"/>
<path d="M54.0486 13.8533H34.9512V48.174H54.0486V13.8533Z" fill="#FF5F00"/>
<path d="M36.1642 31.017C36.1606 27.7112 36.9093 24.4479 38.3536 21.4743C39.7979 18.5007 41.8999 15.8947 44.5003 13.8536C41.2805 11.3232 37.4137 9.74964 33.342 9.31286C29.2702 8.87609 25.1576 9.59367 21.4744 11.3836C17.7911 13.1736 14.6858 15.9636 12.5132 19.435C10.3406 22.9063 9.18848 26.9188 9.18848 31.014C9.18848 35.1091 10.3406 39.1217 12.5132 42.593C14.6858 46.0643 17.7911 48.8544 21.4744 50.6443C25.1576 52.4343 29.2702 53.1519 33.342 52.7151C37.4137 52.2783 41.2805 50.7048 44.5003 48.1744C41.9007 46.1339 39.7992 43.5289 38.3549 40.5564C36.9107 37.5839 36.1615 34.3218 36.1642 31.017Z" fill="#EB001B"/>
<path d="M79.815 31.0166C79.815 35.1121 78.6626 39.1248 76.4896 42.5963C74.3166 46.0677 71.2108 48.8578 67.5271 50.6475C63.8434 52.4371 59.7304 53.1543 55.6584 52.7169C51.5864 52.2795 47.7196 50.7052 44.5 48.174C47.0986 46.1317 49.1995 43.5259 50.6441 40.5533C52.0888 37.5806 52.8394 34.3187 52.8394 31.0136C52.8394 27.7085 52.0888 24.4465 50.6441 21.4739C49.1995 18.5012 47.0986 15.8954 44.5 13.8532C47.7196 11.322 51.5864 9.74768 55.6584 9.31027C59.7304 8.87287 63.8434 9.58999 67.5271 11.3797C71.2108 13.1694 74.3166 15.9594 76.4896 19.4308C78.6626 22.9023 79.815 26.9151 79.815 31.0105V31.0166Z" fill="#F79E1B"/>
<path d="M77.7295 44.5364V43.8331H78.0144V43.6876H77.293V43.8331H77.6022V44.5364H77.7295ZM79.13 44.5364V43.6876H78.9117L78.6571 44.2939L78.4024 43.6876H78.2084V44.5364H78.3661V43.8998L78.6025 44.4515H78.7662L79.0026 43.8998V44.5425L79.13 44.5364Z" fill="#F79E1B"/>
</svg>
