<svg width="36" height="35" viewBox="0 0 36 35" fill="none" xmlns="http://www.w3.org/2000/svg">
<path d="M35.25 17.5C35.25 26.731 27.547 34.25 18 34.25C8.45303 34.25 0.75 26.731 0.75 17.5C0.75 8.26901 8.45303 0.75 18 0.75C27.547 0.75 35.25 8.26901 35.25 17.5Z" stroke="#1A1A1A" stroke-width="1.5"/>
<path d="M23.9623 14.048C23.9623 15.488 23.4903 16.648 22.5463 17.528C21.6023 18.408 20.1863 18.848 18.2983 18.848H14.9143V26H13.2343V9.224H18.2983C20.1703 9.224 21.5783 9.664 22.5223 10.544C23.4823 11.424 23.9623 12.592 23.9623 14.048ZM18.2983 17.408C20.9223 17.408 22.2343 16.288 22.2343 14.048C22.2343 12.928 21.9223 12.08 21.2983 11.504C20.6743 10.928 19.6743 10.64 18.2983 10.64H14.9143V17.408H18.2983Z" fill="#1A1A1A"/>
</svg>
