<svg width="26" height="24" viewBox="0 0 26 24" fill="none" xmlns="http://www.w3.org/2000/svg">
<path d="M1 23.8651V19.4191M24.5 23.8651V19.4191M1 19.4191V10.8921C1 10.3398 1.44772 9.89209 2 9.89209H23.5C24.0523 9.89209 24.5 10.3398 24.5 10.8921V19.4191M1 19.4191H24.5" stroke="#1A1A1A" stroke-width="2"/>
<path d="M4.17627 9.89189V2C4.17627 1.44772 4.62398 1 5.17627 1H20.96C21.5123 1 21.9601 1.44772 21.9601 2V9.89189M6.71681 9.89189V8.35135C6.71681 7.79907 7.16453 7.35135 7.71681 7.35135H9.52762C10.0799 7.35135 10.5276 7.79907 10.5276 8.35135V9.89189M19.4195 9.89189V8.35135C19.4195 7.79907 18.9718 7.35135 18.4195 7.35135H16.6087C16.0564 7.35135 15.6087 7.79907 15.6087 8.35135V9.89189" stroke="#1A1A1A" stroke-width="2"/>
</svg>
