<svg width="23" height="24" viewBox="0 0 23 24" fill="none" xmlns="http://www.w3.org/2000/svg">
<path d="M19.7379 3.36145C19.2418 2.78045 18.6527 2.31956 18.0044 2.00511C17.3561 1.69066 16.6612 1.52881 15.9595 1.52881C15.2577 1.52881 14.5628 1.69066 13.9145 2.00511C13.2662 2.31956 12.6772 2.78045 12.1811 3.36145L11.1515 4.56667L10.1219 3.36145C9.11979 2.18842 7.76065 1.52942 6.34347 1.52942C4.9263 1.52942 3.56716 2.18842 2.56507 3.36145C1.56297 4.53449 1 6.12546 1 7.78438C1 9.4433 1.56297 11.0343 2.56507 12.2073L3.59466 13.4125L11.1515 22.2584L18.7083 13.4125L19.7379 12.2073C20.2342 11.6266 20.6279 10.9371 20.8966 10.1782C21.1652 9.41927 21.3035 8.60585 21.3035 7.78438C21.3035 6.96291 21.1652 6.14949 20.8966 5.39059C20.6279 4.63169 20.2342 3.94218 19.7379 3.36145Z" fill="#F15356" stroke="#F15356" stroke-width="2" stroke-linecap="round" stroke-linejoin="round"/>
</svg>
